<svg width="0" height="0">
    <symbol xmlns="http://www.w3.org/2000/svg" id="fb" viewBox="0 0 20.31 37.28">
        <path d="M3.15 35V21.58H1.88a2 2 0 0 1-1.88-2V14.3a2.61 2.61 0 0 1 .91-2c.48-.53 1.21-1.35 1.47-1.62a2.12 2.12 0 0 1 .75-.43 9.55 9.55 0 0 1 1.06-4.49 21.67 21.67 0 0 1 3.16-3.81 7.64 7.64 0 0 1 5-1.95H18a1.93 1.93 0 0 1 2.22 2.22v4.71a2.25 2.25 0 0 1-.63 1.84l-1.22 1.31a2 2 0 0 1 1.95 2.36c-.16 1.39-.48 4.42-.53 5a2.7 2.7 0 0 1-.46 1.4c-.27.34-1.44 1.62-1.91 2.14a2.05 2.05 0 0 1-1.59.6h-.49V33a3.39 3.39 0 0 1-.37 1.45c-.31.39-1.58 1.83-2.06 2.34a2.29 2.29 0 0 1-1.69.51H5.29A2 2 0 0 1 3.15 35z"/>
        <path fill="#fff" d="M18.36 12h-5V8.79a1.3 1.3 0 0 1 1.38-1.51h3.51V1.9h-4.8c-5.36 0-6.58 4-6.58 6.58v3.59H3.78v5.54h3.1V33.3h6.5V17.58h4.4z"/>
    </symbol>
    <symbol xmlns="http://www.w3.org/2000/svg" id="insta" viewBox="0 0 36.41 36.37">
        <path d="M29.37 0H9.09a6.93 6.93 0 0 0-4.93 2.26C2.78 3.62 2.62 3.77 1.6 4.88A7.14 7.14 0 0 0 0 9.08v20.75a6.6 6.6 0 0 0 6.54 6.54h20.75a6.66 6.66 0 0 0 4.59-1.94c1-1.09 1.89-1.86 2.91-2.91a7.18 7.18 0 0 0 1.61-4.25V6.51C36.41 2.88 33.43 0 29.37 0z"/>
        <path fill="#fff" d="M28.86 1.62H10.12a5.91 5.91 0 0 0-5.9 5.9v18.74a5.91 5.91 0 0 0 5.9 5.9h18.75a5.91 5.91 0 0 0 5.9-5.9V7.52a5.91 5.91 0 0 0-5.91-5.9zm1.69 3.51h.68v5.18h-5.16V5.13zm-15.4 8.63a5.37 5.37 0 1 1-1 3.14 5.37 5.37 0 0 1 1-3.14zm16.64 12.51a2.93 2.93 0 0 1-2.93 2.93H10.12a2.93 2.93 0 0 1-2.92-2.93V13.76h4.57a8.35 8.35 0 1 0 15.47 0h4.56z"/>
    </symbol>
    <symbol xmlns="http://www.w3.org/2000/svg" id="pin" viewBox="0 0 37.5 37.44">
        <path d="M7.24 5L4.7 7.59c-6.71 7-6.12 18.52 1.06 25.13 5 5 14.76 7 23.24 1a44.71 44.71 0 0 0 3.51-3.43A17.87 17.87 0 0 0 7.23 5z"/>
        <path fill="#fff" d="M19.87 1.63a16 16 0 0 0-6.43 30.67 14.07 14.07 0 0 1 .28-3.67l2.06-8.72a6.14 6.14 0 0 1-.51-2.53c0-2.37 1.37-4.14 3.09-4.14a2.14 2.14 0 0 1 2.16 2.4c0 1.46-.94 3.65-1.41 5.68a2.48 2.48 0 0 0 2.53 3.08c3 0 5.08-3.9 5.08-8.51 0-3.51-2.36-6.14-6.66-6.14A7.58 7.58 0 0 0 12.18 17v.39a4.62 4.62 0 0 0 1.05 3.14.77.77 0 0 1 .23.89c-.08.29-.25 1-.32 1.3a.55.55 0 0 1-.63.46l-.17-.05c-2.24-.91-3.25-3.36-3.25-6.12 0-4.55 3.83-10 11.44-10 6.11 0 10.13 4.42 10.13 9.17 0 6.28-3.49 11-8.63 11a4.56 4.56 0 0 1-3.9-2s-.93 3.69-1.12 4.4A13.38 13.38 0 0 1 15.38 33a16 16 0 1 0 4.55-31.36z"/>
    </symbol>
    <symbol xmlns="http://www.w3.org/2000/svg" id="twitter" viewBox="0 0 37.77 31.38">
        <path d="M.45 25.71c.8-.67 2.11-1.89 2.7-2.27a1.93 1.93 0 0 1 1.4-.32h1.06a7.45 7.45 0 0 1-1.87-3c-.26-.84-.07-1 0-1.26a8.2 8.2 0 0 1-2.48-6A1.74 1.74 0 0 1 2 11.5a8.55 8.55 0 0 1-.69-3.57 12.38 12.38 0 0 1 .89-3.22 3.72 3.72 0 0 1 1-1.3c.37-.29 1.65-1.36 2.06-1.73a1.67 1.67 0 0 1 2.49.17c4.06 4.69 8.37 5.54 8.37 5.54a12.62 12.62 0 0 1 1.75-2.72c.69-.59 3.16-2.7 3.7-3.14a8.21 8.21 0 0 1 10 .37A11.31 11.31 0 0 0 34.38.77a1.65 1.65 0 0 1 2.19 2.4c1.66.34 1.25 1.92.84 2.65a29.1 29.1 0 0 1-2.83 3.08 20.55 20.55 0 0 1-6.91 15.44c-.65.56-3.33 2.77-4.43 3.6a20.3 20.3 0 0 1-12 3.42 19.86 19.86 0 0 1-10.32-3 1.67 1.67 0 0 1-.47-2.65z"/>
        <path fill="#fff" d="M36.19 4.75a13.07 13.07 0 0 1-3.78 1 6.58 6.58 0 0 0 2.89-3.6 13.15 13.15 0 0 1-4.17 1.59 6.58 6.58 0 0 0-11.19 6A18.65 18.65 0 0 1 6.4 2.87a6.58 6.58 0 0 0 2 8.77 6.55 6.55 0 0 1-3-.82v.08a6.57 6.57 0 0 0 5.27 6.44 6.6 6.6 0 0 1-1.67.24 6.5 6.5 0 0 1-1.23-.12A6.58 6.58 0 0 0 13.9 22a13.25 13.25 0 0 1-9.75 2.72 18.59 18.59 0 0 0 10.07 3c12.08 0 18.69-10 18.69-18.69v-.89a13.31 13.31 0 0 0 3.28-3.39z"/>
    </symbol>
    <symbol xmlns="http://www.w3.org/2000/svg" id="washing_01" viewBox="0 0 26.8 17.56">
        <path d="M22.32 17.56H4.42l-.12-.46C3.22 13.13.33 2.51 0 1.16 0 .91.09.42.24.37.76.2 1.28-.21 1.87.16A.39.39 0 0 1 2 .41 1.86 1.86 0 0 0 3.36 2.1c.54.18.95.76 1.39 1.2.77.76 1.13.76 1.89 0l.59-.6a3 3 0 0 1 4.52 0l.54.56c.79.82 1.15.82 1.92 0l.59-.6a3 3 0 0 1 4.48 0c.28.28.55.58.84.86a.89.89 0 0 0 1.41 0 9.37 9.37 0 0 1 .8-.81 5.82 5.82 0 0 1 1.46-.88A1.07 1.07 0 0 0 24.6 1c.27-1.13.29-1.12 1.4-.82l.17.06c.65.18.73.33.56 1zm-1.61-2.19l2.91-10.81-.14-.11A5.35 5.35 0 0 1 23 5a3 3 0 0 1-4.4 0c-.28-.28-.55-.58-.84-.86a1 1 0 0 0-1.47 0c-.24.24-.47.49-.71.73a3.05 3.05 0 0 1-4.65 0c-.25-.26-.49-.53-.75-.77a1 1 0 0 0-1.43 0c-.3.29-.58.61-.88.9a2.67 2.67 0 0 1-2.61.84 12.63 12.63 0 0 1-2-.85L6 15.37z"/>
        <path d="M18.57 10.68a15.34 15.34 0 0 1-.34 1.67 2 2 0 0 1-1.94 1.49 2 2 0 0 1-2.11-1.42 4.84 4.84 0 0 1 .08-3.62 2.08 2.08 0 0 1 2-1.31 2 2 0 0 1 2 1.4 14.15 14.15 0 0 1 .31 1.79zm-1.43 0a10.86 10.86 0 0 0-.29-1.59.89.89 0 0 0-.62-.53.87.87 0 0 0-.64.49 4.48 4.48 0 0 0 0 3.19.88.88 0 0 0 .66.45.79.79 0 0 0 .58-.46 11.8 11.8 0 0 0 .3-1.51zm-8.21 1.78a11.67 11.67 0 0 0 1.48.28.94.94 0 0 0 1.1-.77c0-.48-.32-.82-1-.92L9.74 11a2.73 2.73 0 0 1 0-.29v-.65a6.07 6.07 0 0 0 .84 0c.41-.08.83-.25.8-.74s-.46-.63-.89-.59-.85.14-1.33.23L8.85 8A3.52 3.52 0 0 1 12 7.79 1.29 1.29 0 0 1 12.78 9a1.44 1.44 0 0 1-1 1.44 1.22 1.22 0 0 0 .21.15 1.44 1.44 0 0 1 1 1.27 1.58 1.58 0 0 1-.83 1.6 3.68 3.68 0 0 1-3.16.11.48.48 0 0 1-.21-.4 3.75 3.75 0 0 1 .14-.71z"/>
    </symbol>
    <symbol xmlns="http://www.w3.org/2000/svg" id="washing_02" viewBox="0 0 25.21 23.55">
        <path d="M.65 21.28c-.57-.62-.31-1.23 0-1.85 1.4-2.39 2.78-4.8 4.17-7.2l.24-.44L.65 9c-.72-.45-.73-.51-.3-1.21C1 6.74 1 6.74 2.12 7.43l4 2.53 2.46-4.17c1-1.66 2-3.29 2.85-5a1.26 1.26 0 0 1 2.36 0c1.6 2.9 3.29 5.75 4.94 8.61.11.19.23.37.36.57l4.46-2.75c.68-.42.78-.4 1.21.31L25 8c.31.46.23.77-.27 1.06-1.53.9-3 1.85-4.61 2.82l1.76 3.06c.9 1.56 1.78 3.12 2.7 4.66a1.27 1.27 0 0 1-.12 1.78 2.39 2.39 0 0 1 .45.33c.58.71-.27 1-.44 1.53-.12.35-.43.43-.78.2-.8-.52-1.61-1-2.44-1.52a2.26 2.26 0 0 0-1.06-.31H4.93a2.6 2.6 0 0 0-1.17.33c-.79.43-1.54.92-2.3 1.4a.56.56 0 0 1-.9-.2l-.21-.36c-.51-.88-.51-.88.3-1.5zm16.61-10.15l-4.65-8.06L8 11.09c1.5.94 3 1.86 4.44 2.76a.49.49 0 0 0 .42 0c1.45-.91 2.91-1.85 4.4-2.72zM18.33 13l-3.62 2.2c.07.08.09.14.14.17 2.11 1.32 4.22 2.65 6.34 4a3.58 3.58 0 0 0 .93.22zm-7.75 2.25l-3.66-2.31-3.73 6.45.08.13a3.92 3.92 0 0 0 .73-.26c1.06-.63 2.11-1.28 3.16-1.93zm6.55 4.22v-.11c-1.45-.91-2.89-1.82-4.35-2.7a.7.7 0 0 0-.57.09c-1.32.79-2.62 1.59-3.93 2.39-.12.08-.23.17-.44.33z"/>
    </symbol>
    <symbol xmlns="http://www.w3.org/2000/svg" id="washing_03" viewBox="0 0 28 13.95">
        <path d="M28 12.62v.24A1.51 1.51 0 0 1 26.31 14H1.2A1.28 1.28 0 0 1 0 12.45a10.47 10.47 0 0 1 4.25-7 2 2 0 0 1 1.08-.35h19.16L24 2.16H8a1 1 0 0 1-.68-.22A2.05 2.05 0 0 1 7.57 0H25a1.69 1.69 0 0 1 1 1.32q.66 4.05 1.36 8.1c.22 1.07.44 2.13.64 3.2zm-25.66-.87h23.3l-.77-4.51H5.76a.85.85 0 0 0-.5.12 8.36 8.36 0 0 0-2.92 4.39z"/>
        <path d="M14 10.71a1.09 1.09 0 0 1-1.14-1.12A1.13 1.13 0 0 1 14 8.46a1.2 1.2 0 0 1 1.13 1.11A1.13 1.13 0 0 1 14 10.71z"/>
    </symbol>
    <symbol xmlns="http://www.w3.org/2000/svg" id="washing_04" viewBox="0 0 26.03 23.44">
        <path d="M3.62 18.78l-2.08 1.29a.56.56 0 0 1-.91-.22c-.81-1.39-1-1.19.48-2.1l1.38-.86a11.75 11.75 0 0 1-1.15-6.07A10.6 10.6 0 0 1 2.31 7c.19-.41.12-.61-.27-.82S1 5.52.52 5.21 0 4.69.28 4.25c.93-1.41.67-1.36 2-.51l1.34.84A11.69 11.69 0 0 1 13 0a11.67 11.67 0 0 1 9.4 4.65l1.92-1.18c.65-.39.77-.36 1.17.27.77 1.21.7 1.18-.44 1.85-.49.29-1 .6-1.5.93a12.55 12.55 0 0 1 1.18 5.21A12.37 12.37 0 0 1 23.54 17c.65.41 1.29.84 2 1.23.48.28.54.57.24 1-.76 1.22-.75 1.23-2 .46l-1.37-.85a11.65 11.65 0 0 1-9.41 4.6 11.67 11.67 0 0 1-9.38-4.66zm2-13c2.41 1.51 4.77 3 7.16 4.46a.7.7 0 0 0 .59 0c.73-.42 1.45-.87 2.16-1.31l5-3.07A9.44 9.44 0 0 0 5.62 5.8zm-.09 11.83c4.4 5.43 12 4.22 14.86.05v-.05c-2.37-1.49-4.73-3-7.11-4.45a.72.72 0 0 0-.59.08c-.78.45-1.55.93-2.32 1.41zm-1.16-1.87l6.57-4L4.4 7.63a9.52 9.52 0 0 0-.03 8.11zm10.74-4l6.56 4.09a9.75 9.75 0 0 0 0-8.13z"/>
    </symbol>
    <symbol xmlns="http://www.w3.org/2000/svg" id="washing_05" viewBox="0 0 26.03 23.67">
        <path d="M1.14 0v23.66H24.8V0zm21.44 21.51H3.21V2.15h19.37z"/>
        <path d="M3.62 19l-2.08 1.3a.56.56 0 0 1-.91-.22c-.81-1.39-1-1.19.48-2.1l1.38-.86A11.75 11.75 0 0 1 1.33 11a10.6 10.6 0 0 1 1-3.86c.19-.41.12-.61-.27-.82S1 5.75.52 5.44 0 4.92.28 4.48c.93-1.41.67-1.36 2-.51l1.34.84A11.69 11.69 0 0 1 13 .23a11.67 11.67 0 0 1 9.4 4.65l1.92-1.18c.65-.39.77-.36 1.17.27.77 1.21.7 1.18-.44 1.85-.49.29-1 .6-1.5.93A12.55 12.55 0 0 1 24.76 12a12.37 12.37 0 0 1-1.22 5.24c.65.41 1.29.84 2 1.23.48.28.54.57.24 1-.76 1.22-.75 1.23-2 .46l-1.37-.85A11.65 11.65 0 0 1 13 23.67 11.67 11.67 0 0 1 3.62 19zm2-13C8 7.54 10.4 9 12.78 10.49a.7.7 0 0 0 .59 0c.73-.42 1.45-.87 2.16-1.31l5-3.07A9.44 9.44 0 0 0 5.62 6zm-.09 11.84c4.4 5.43 12 4.22 14.86.05v-.05c-2.37-1.49-4.73-3-7.11-4.45a.72.72 0 0 0-.59.08c-.78.45-1.55.93-2.32 1.41zM4.37 16l6.57-4L4.4 7.86A9.52 9.52 0 0 0 4.37 16zm10.74-4l6.56 4.09a9.75 9.75 0 0 0 0-8.13z"/>
    </symbol>
    <symbol xmlns="http://www.w3.org/2000/svg" id="bars" aria-hidden="true" data-icon="bars" data-prefix="fas" viewBox="0 0 448 512">
        <path d="M16 132h416c8.837 0 16-7.163 16-16V76c0-8.837-7.163-16-16-16H16C7.163 60 0 67.163 0 76v40c0 8.837 7.163 16 16 16zm0 160h416c8.837 0 16-7.163 16-16v-40c0-8.837-7.163-16-16-16H16c-8.837 0-16 7.163-16 16v40c0 8.837 7.163 16 16 16zm0 160h416c8.837 0 16-7.163 16-16v-40c0-8.837-7.163-16-16-16H16c-8.837 0-16 7.163-16 16v40c0 8.837 7.163 16 16 16z"/>
    </symbol>
    <symbol xmlns="http://www.w3.org/2000/svg" id="cross" aria-hidden="true" data-icon="times" data-prefix="fas" viewBox="0 0 352 512">
        <path d="M242.72 256l100.07-100.07c12.28-12.28 12.28-32.19 0-44.48l-22.24-22.24c-12.28-12.28-32.19-12.28-44.48 0L176 189.28 75.93 89.21c-12.28-12.28-32.19-12.28-44.48 0L9.21 111.45c-12.28 12.28-12.28 32.19 0 44.48L109.28 256 9.21 356.07c-12.28 12.28-12.28 32.19 0 44.48l22.24 22.24c12.28 12.28 32.2 12.28 44.48 0L176 322.72l100.07 100.07c12.28 12.28 32.2 12.28 44.48 0l22.24-22.24c12.28-12.28 12.28-32.19 0-44.48L242.72 256z"/>
    </symbol>
</svg>
